<svg width="24" height="24" viewBox="0 0 24 24" fill="none" xmlns="http://www.w3.org/2000/svg">
<path fill-rule="evenodd" clip-rule="evenodd" d="M1.5 12C1.5 11.8011 1.57902 11.6103 1.71967 11.4697C1.86032 11.329 2.05109 11.25 2.25 11.25H19.9395L15.219 6.53099C15.1493 6.46125 15.094 6.37847 15.0562 6.28736C15.0185 6.19625 14.9991 6.0986 14.9991 5.99999C14.9991 5.90137 15.0185 5.80372 15.0562 5.71261C15.094 5.6215 15.1493 5.53872 15.219 5.46899C15.2887 5.39925 15.3715 5.34394 15.4626 5.3062C15.5537 5.26846 15.6514 5.24904 15.75 5.24904C15.8486 5.24904 15.9463 5.26846 16.0374 5.3062C16.1285 5.34394 16.2113 5.39925 16.281 5.46899L22.281 11.469C22.3508 11.5387 22.4063 11.6214 22.4441 11.7125C22.4819 11.8037 22.5013 11.9013 22.5013 12C22.5013 12.0986 22.4819 12.1963 22.4441 12.2874C22.4063 12.3786 22.3508 12.4613 22.281 12.531L16.281 18.531C16.2113 18.6007 16.1285 18.656 16.0374 18.6938C15.9463 18.7315 15.8486 18.7509 15.75 18.7509C15.6514 18.7509 15.5537 18.7315 15.4626 18.6938C15.3715 18.656 15.2887 18.6007 15.219 18.531C15.1493 18.4613 15.094 18.3785 15.0562 18.2874C15.0185 18.1963 14.9991 18.0986 14.9991 18C14.9991 17.9014 15.0185 17.8037 15.0562 17.7126C15.094 17.6215 15.1493 17.5387 15.219 17.469L19.9395 12.75H2.25C2.05109 12.75 1.86032 12.671 1.71967 12.5303C1.57902 12.3897 1.5 12.1989 1.5 12Z" fill="#181515"/>
</svg>
